<svg width="95.41041000000001" height="98.74999999999999" xmlns="http://www.w3.org/2000/svg">
 <defs>
  <style>.cls-1{fill:none;}.cls-2{fill:#39424e;}</style>
 </defs>
 <title>Problem_Solving</title>
 <g>
  <title>background</title>
  <rect fill="none" id="canvas_background" height="402" width="582" y="-1" x="-1"/>
 </g>
 <g>
  <title>Layer 1</title>
  <g id="problem_solving">
   <polygon id="svg_1" points="227.43299865722656,-32.75899887084961 241.27199935913086,-40.77000045776367 227.43299865722656,-48.417999267578125 227.43299865722656,-32.75899887084961 " class="cls-1"/>
   <path id="svg_2" d="m226.34101,-58.35506l0,-16.28214c0,-0.074 0.01534,-0.13269 0.01845,-0.20382l-1.95283,-1.15178l-11.90371,-6.76336l0,16.49463l5.536,3.26487l8.30209,4.6416z" class="cls-1"/>
   <polygon id="svg_3" points="227.17100143432617,-75.72999954223633 227.20299911499023,-75.71100044250488 241.8489990234375,-84.26399993896484 227.38100051879883,-92.65700006484985 212.69400024414062,-84.14599990844727 227.17100143432617,-75.72999954223633 " class="cls-1"/>
   <polygon id="svg_4" points="180.45700001716614,-23.290000915527344 225.97700119018555,2.9290008544921875 225.97700119018555,-13.458000183105469 180.45700001716614,-39.678001403808594 180.45700001716614,-23.290000915527344 " class="cls-1"/>
   <path id="svg_6" d="m210.89993,-39.918l14.995,8.52015l0.24338,0.1507a0.82079,0.82079 0 0 0 0.28583,0.146c0.05757,0.01623 0.10758,-0.02312 0.16492,-0.01956a0.74976,0.74976 0 0 0 0.409,-0.04845c0.01845,-0.00889 0.03823,-0.00556 0.056,-0.01578c0.07224,-0.02889 0.15381,-0.01134 0.218,-0.06223l0.25027,-0.1547l15.20615,-8.63973c0.38674,-0.31206 0.36407,-0.36407 0.36407,-0.72837c0.00022,-0.54611 -0.246,-0.66569 -0.61012,-0.87129l-15.19167,-8.83244l0,0l-0.22138,-0.12869l-0.09335,0a0.75833,0.75833 0 0 0 -0.52388,0l-0.11113,0l-0.178,0.10358l-0.00022,0l-15.34533,8.92181a0.81609,0.81609 0 0 0 -0.49966,0.80705c0,0.36404 0.09647,0.57295 0.58212,0.85195zm16.53353,7.15943l0,-15.65895l13.8381,7.64731l-13.8381,8.01164z" class="cls-2"/>
   <path id="svg_7" d="m274.0461,-41.49836l-35.15235,-21.0362l4.19862,-2.27023c0.42142,-0.18737 0.3643,-0.36407 0.3643,-0.72837l0,-18.20808c0,-0.07668 -0.01578,-0.13758 -0.01911,-0.21071a1.21385,1.21385 0 0 0 0.01911,-0.15336c0,-0.3643 0,-0.72837 -0.3643,-0.72837l-15.17526,-9.03292a0.94806,0.94806 0 0 0 -0.96153,-0.00489l-15.54511,9.03781a0.68617,0.68617 0 0 0 -0.29495,0.337a0.60869,0.60869 0 0 0 -0.03067,0.08246a2.3798,2.3798 0 0 0 -0.03867,0.673l0,17.91311a0.65773,0.65773 0 0 0 0.3643,0.65924l3.981,2.30513l-36.02741,20.63702c-0.36407,0.36407 -0.36407,0.36407 -0.36407,0.72837c0,0.07668 0.01578,0.13758 0.01911,0.21071a1.21385,1.21385 0 0 0 -0.01911,0.15336l0,17.844c0,0.36407 0,0.52988 0.36407,0.72815l47.34102,27.31213a1.71436,1.71436 0 0 0 0.65813,-0.33407l0.07024,-0.03l46.61264,-26.58376c0.3643,0 0.3643,-0.36407 0.3643,-0.72837l0,-17.47971l-0.01378,-0.01378l-0.35052,-1.07867zm-46.66554,-51.15864l14.46864,8.39321l-14.64626,8.5526l-0.03245,-0.01889l-14.47665,-8.41635l14.68672,-8.51057zm-14.87764,9.90084l11.90371,6.76336l1.95283,1.1518c-0.00311,0.07113 -0.01845,0.1298 -0.01845,0.20382l0,16.28212l-8.3021,-4.64159l-5.536,-3.26487l0.00001,-16.49464zm11.81147,25.05857l1.96128,1.18579a1.19688,1.19688 0 0 0 1.11153,0.1738l0.04623,0l0.05957,-0.03223l0.01623,-0.00867l9.42366,-5.09546l35.29241,20.70415l-45.03633,25.941c-0.04512,-0.02312 -0.05134,-0.08535 -0.11958,-0.08535l-46.02943,-26.40465l36.08343,-20.54188l7.191,4.1635zm-5.52845,56.46328l-38.32921,-22.05596l0,-16.38728l45.52021,26.21947l-7.191,12.22377z" class="cls-2"/>
  </g>
  <ellipse stroke="#39424e" ry="44" rx="44.16666" id="svg_9" cy="49.499999" cx="47.538535" fill-opacity="0" stroke-width="6" fill="#39424e"/>
  <text stroke="#39424e" transform="matrix(3.6587012258470377,0,0,2.8668259939237277,-105.51274233380371,-49.95185733896251) " xml:space="preserve" text-anchor="start" font-family="Helvetica, Arial, sans-serif" font-size="24" id="svg_10" y="42.104428" x="33.165107" fill="#39424e">R</text>
 </g>
</svg>