<svg width="200" height="200" xmlns="http://www.w3.org/2000/svg">
 <!-- Created with Method Draw - http://github.com/duopixel/Method-Draw/ -->
 <g>
  <title>background</title>
  <rect fill="none" id="canvas_background" height="202" width="202" y="-1" x="-1"/>
 </g>
 <g>
  <title>Layer 1</title>
  <path stroke="#000" id="svg_2" d="m15.928832,100.983024c18.548051,-31.835753 51.989205,-59.007589 80.438415,-85.973787c33.094591,17.305201 61.686461,55.376338 86.561582,81.892065c-22.186939,30.670142 -54.124598,58.602257 -82.896222,86.107952c-31.016334,-25.165134 -57.540346,-53.916801 -84.103767,-82.02623l-0.000007,0z" fill-opacity="0" stroke-opacity="null" stroke-width="1.5" fill="#0fffff"/>
  <path stroke="#000" id="svg_4" d="m118.92883,200.98302c18.54805,-31.83575 51.98921,-59.00759 80.43842,-85.97378c33.09459,17.3052 61.68646,55.37633 86.56158,81.89206c-22.18694,30.67014 -54.1246,58.60226 -82.89622,86.10795c-31.01634,-25.16513 -57.54035,-53.9168 -84.10377,-82.02623l-0.00001,0z" fill-opacity="0" stroke-opacity="null" stroke-width="1.5" fill="#0fffff"/>
  <path stroke="#000" id="svg_5" d="m117.92883,1.98302c18.54805,-31.83575 51.98921,-59.00759 80.43842,-85.97378c33.09459,17.3052 61.68646,55.37633 86.56158,81.89206c-22.18694,30.67014 -54.1246,58.60226 -82.89622,86.10795c-31.01634,-25.16513 -57.54035,-53.9168 -84.10377,-82.02623l-0.00001,0z" fill-opacity="0" stroke-opacity="null" stroke-width="1.5" fill="#0fffff"/>
  <path stroke="#000" id="svg_6" d="m-83.07117,1.98302c18.54805,-31.83575 51.98921,-59.00759 80.43842,-85.97378c33.09459,17.3052 61.68646,55.37633 86.56158,81.89206c-22.18694,30.67014 -54.1246,58.60226 -82.89622,86.10795c-31.01634,-25.16513 -57.54035,-53.9168 -84.10377,-82.02623l-0.00001,0z" fill-opacity="0" stroke-opacity="null" stroke-width="1.5" fill="#0fffff"/>
  <path stroke="#000" id="svg_7" d="m-83.07117,202.98302c18.54805,-31.83575 51.98921,-59.00759 80.43842,-85.97378c33.09459,17.3052 61.68646,55.37633 86.56158,81.89206c-22.18694,30.67014 -54.1246,58.60226 -82.89622,86.10795c-31.01634,-25.16513 -57.54035,-53.9168 -84.10377,-82.02623l-0.00001,0z" fill-opacity="0" stroke-opacity="null" stroke-width="1.5" fill="#0fffff"/>
 </g>
</svg>